<svg preserveAspectRatio="none" width="100%" height="100%" overflow="visible" style="display: block;" viewBox="0 0 346.25 346.25" fill="none" xmlns="http://www.w3.org/2000/svg">
<g id="image">
<path id="Vector" d="M69.25 114.263C74.9869 114.263 79.6375 109.612 79.6375 103.875C79.6375 98.1381 74.9869 93.4875 69.25 93.4875C63.5131 93.4875 58.8625 98.1381 58.8625 103.875C58.8625 109.612 63.5131 114.263 69.25 114.263Z" fill="var(--fill-0, white)"/>
<path id="Vector_2" d="M277 252.763C282.737 252.763 287.387 248.112 287.387 242.375C287.387 236.638 282.737 231.988 277 231.988C271.263 231.988 266.612 236.638 266.612 242.375C266.612 248.112 271.263 252.763 277 252.763Z" fill="var(--fill-0, white)"/>
<path id="Vector_3" d="M69.25 103.875C138.5 57.7083 207.75 103.875 277 242.375" stroke="var(--stroke-0, white)" stroke-width="3.4625" stroke-dasharray="13.85 13.85"/>
</g>
</svg>
