<svg preserveAspectRatio="none" width="100%" height="100%" overflow="visible" style="display: block;" viewBox="0 0 2.33333 10.3333" fill="none" xmlns="http://www.w3.org/2000/svg">
<g id="Vector">
<path d="M0.5 9.16667C0.5 9.53486 0.798477 9.83333 1.16667 9.83333C1.53486 9.83333 1.83333 9.53486 1.83333 9.16667C1.83333 8.79848 1.53486 8.5 1.16667 8.5C0.798477 8.5 0.5 8.79848 0.5 9.16667Z" fill="var(--fill-0, white)"/>
<path d="M0.5 5.16667C0.5 5.53486 0.798477 5.83333 1.16667 5.83333C1.53486 5.83333 1.83333 5.53486 1.83333 5.16667C1.83333 4.79848 1.53486 4.5 1.16667 4.5C0.798477 4.5 0.5 4.79848 0.5 5.16667Z" fill="var(--fill-0, white)"/>
<path d="M0.5 1.16667C0.5 1.53486 0.798477 1.83333 1.16667 1.83333C1.53486 1.83333 1.83333 1.53486 1.83333 1.16667C1.83333 0.798477 1.53486 0.5 1.16667 0.5C0.798477 0.5 0.5 0.798477 0.5 1.16667Z" fill="var(--fill-0, white)"/>
<path d="M0.5 9.16667C0.5 9.53486 0.798477 9.83333 1.16667 9.83333C1.53486 9.83333 1.83333 9.53486 1.83333 9.16667C1.83333 8.79848 1.53486 8.5 1.16667 8.5C0.798477 8.5 0.5 8.79848 0.5 9.16667Z" stroke="var(--stroke-0, white)" stroke-linecap="round" stroke-linejoin="round"/>
<path d="M0.5 5.16667C0.5 5.53486 0.798477 5.83333 1.16667 5.83333C1.53486 5.83333 1.83333 5.53486 1.83333 5.16667C1.83333 4.79848 1.53486 4.5 1.16667 4.5C0.798477 4.5 0.5 4.79848 0.5 5.16667Z" stroke="var(--stroke-0, white)" stroke-linecap="round" stroke-linejoin="round"/>
<path d="M0.5 1.16667C0.5 1.53486 0.798477 1.83333 1.16667 1.83333C1.53486 1.83333 1.83333 1.53486 1.83333 1.16667C1.83333 0.798477 1.53486 0.5 1.16667 0.5C0.798477 0.5 0.5 0.798477 0.5 1.16667Z" stroke="var(--stroke-0, white)" stroke-linecap="round" stroke-linejoin="round"/>
</g>
</svg>
