<svg preserveAspectRatio="none" width="100%" height="100%" overflow="visible" style="display: block;" viewBox="0 0 17.224 14.3392" fill="none" xmlns="http://www.w3.org/2000/svg">
<g id="Frame 16">
<path id="Vector" fill-rule="evenodd" clip-rule="evenodd" d="M12.85 0.182879C10.1561 -0.0467821 7.44807 -0.0601582 4.752 0.142879L4.559 0.157879C3.31941 0.251428 2.16091 0.809818 1.31552 1.72122C0.470131 2.63263 0.000257362 3.82976 0 5.07288V13.5899C0.00011451 13.7195 0.0338392 13.8469 0.097883 13.9597C0.161927 14.0724 0.254102 14.1666 0.365414 14.2331C0.476726 14.2996 0.603373 14.3361 0.732995 14.339C0.862618 14.342 0.990788 14.3112 1.105 14.2499L5.015 12.1489C5.19728 12.0509 5.40105 11.9997 5.608 11.9999H14.584C15.716 11.9999 16.686 11.1899 16.889 10.0769C17.301 7.81988 17.333 5.50988 16.985 3.24188L16.883 2.57288C16.7923 1.98184 16.5056 1.43845 16.0689 1.03002C15.6321 0.621587 15.0708 0.37183 14.475 0.320879L12.85 0.182879ZM4.866 1.63888C7.48213 1.44116 10.1099 1.45386 12.724 1.67688L14.348 1.81588C14.884 1.86188 15.32 2.26888 15.401 2.80088L15.504 3.46888C15.8255 5.57227 15.795 7.71446 15.414 9.80788C15.3792 10.0023 15.277 10.1782 15.1254 10.3047C14.9738 10.4313 14.7825 10.5004 14.585 10.4999H5.608C5.15357 10.5 4.70623 10.6126 4.306 10.8279L1.5 12.3359V5.07288C1.50005 4.20806 1.82679 3.37517 2.41479 2.741C3.00279 2.10683 3.80865 1.71818 4.671 1.65288L4.866 1.63888Z" fill="var(--fill-0, #60A5FA)"/>
<path id="Vector_2" d="M4.68822 4.55909C4.36101 4.55909 4.0472 4.68767 3.81583 4.91655C3.58446 5.14542 3.45448 5.45584 3.45448 5.77952C3.45448 6.1032 3.58446 6.41362 3.81583 6.64249C4.0472 6.87137 4.36101 6.99995 4.68822 6.99995C5.01543 6.99995 5.32924 6.87137 5.56061 6.64249C5.79198 6.41362 5.92196 6.1032 5.92196 5.77952C5.92196 5.45584 5.79198 5.14542 5.56061 4.91655C5.32924 4.68767 5.01543 4.55909 4.68822 4.55909ZM8.63619 4.55909C8.30899 4.55909 7.99518 4.68767 7.76381 4.91655C7.53244 5.14542 7.40245 5.45584 7.40245 5.77952C7.40245 6.1032 7.53244 6.41362 7.76381 6.64249C7.99518 6.87137 8.30899 6.99995 8.63619 6.99995C8.9634 6.99995 9.27721 6.87137 9.50858 6.64249C9.73995 6.41362 9.86994 6.1032 9.86994 5.77952C9.86994 5.45584 9.73995 5.14542 9.50858 4.91655C9.27721 4.68767 8.9634 4.55909 8.63619 4.55909ZM11.3504 5.77952C11.3504 5.45584 11.4804 5.14542 11.7118 4.91655C11.9432 4.68767 12.257 4.55909 12.5842 4.55909C12.9114 4.55909 13.2252 4.68767 13.4566 4.91655C13.6879 5.14542 13.8179 5.45584 13.8179 5.77952C13.8179 6.1032 13.6879 6.41362 13.4566 6.64249C13.2252 6.87137 12.9114 6.99995 12.5842 6.99995C12.257 6.99995 11.9432 6.87137 11.7118 6.64249C11.4804 6.41362 11.3504 6.1032 11.3504 5.77952Z" fill="var(--fill-0, #60A5FA)"/>
</g>
</svg>
