<svg preserveAspectRatio="none" width="100%" height="100%" overflow="visible" style="display: block;" viewBox="0 0 19.5 18.7799" fill="none" xmlns="http://www.w3.org/2000/svg">
<g id="Group">
<path id="Vector" d="M18.75 9.38896C18.7528 11.1044 18.2214 12.7815 17.224 14.2049C16.4014 15.3829 15.2892 16.3482 13.9856 17.0154C12.682 17.6825 11.2272 18.031 9.75 18.0299C8.27277 18.031 6.81804 17.6825 5.51445 17.0154C4.21085 16.3482 3.09858 15.3829 2.276 14.2049C1.49273 13.0838 0.993903 11.8022 0.819507 10.4628C0.64511 9.12332 0.799996 7.76326 1.27175 6.49163C1.7435 5.22 2.519 4.07217 3.53607 3.14016C4.55314 2.20814 5.7835 1.51787 7.12851 1.12468C8.47352 0.731493 9.89577 0.646317 11.2812 0.875984C12.6667 1.10565 13.9769 1.64377 15.1067 2.44721C16.2365 3.25065 17.1546 4.29705 17.7873 5.50254C18.42 6.70803 18.7497 8.03907 18.75 9.38896Z" stroke="var(--stroke-0, #60A5FA)" stroke-width="1.5"/>
<path id="Vector_2" d="M11.0001 6.50865C11.0001 7.17112 10.4401 7.70878 9.75008 7.70878V9.14894C10.4794 9.14894 11.1789 8.87077 11.6946 8.37562C12.2103 7.88047 12.5001 7.2089 12.5001 6.50865H11.0001ZM9.75008 7.70878C9.06008 7.70878 8.50008 7.17112 8.50008 6.50865H7.00008C7.00008 7.2089 7.28981 7.88047 7.80554 8.37562C8.32126 8.87077 9.02073 9.14894 9.75008 9.14894V7.70878ZM8.50008 6.50865C8.50008 5.84617 9.06008 5.30851 9.75008 5.30851V3.86835C9.02073 3.86835 8.32126 4.14653 7.80554 4.64168C7.28981 5.13683 7.00008 5.8084 7.00008 6.50865H8.50008ZM9.75008 5.30851C10.4401 5.30851 11.0001 5.84617 11.0001 6.50865H12.5001C12.5001 5.8084 12.2103 5.13683 11.6946 4.64168C11.1789 4.14653 10.4794 3.86835 9.75008 3.86835V5.30851ZM2.91608 15.0114L2.19708 14.8059L2.08008 15.1823L2.34708 15.4799L2.91608 15.0114ZM16.5841 15.0114L17.1541 15.4808L17.4201 15.1832L17.3031 14.8059L16.5841 15.0114ZM6.75008 12.9894H12.7501V11.5492H6.75008V12.9894ZM6.75008 11.5492C5.7271 11.5489 4.73136 11.8658 3.91101 12.4526C3.09067 13.0393 2.48954 13.8647 2.19708 14.8059L3.63508 15.2168C3.83533 14.573 4.24665 14.0085 4.80789 13.6072C5.36912 13.2059 6.05029 12.9892 6.75008 12.9894V11.5492ZM9.75008 17.3098C8.5595 17.3112 7.38279 17.0644 6.30116 16.5867C5.21954 16.109 4.25874 15.4117 3.48508 14.5428L2.34708 15.4799C3.26154 16.5062 4.39692 17.3309 5.67497 17.8953C6.95301 18.4597 8.34333 18.7513 9.75008 18.75V17.3098ZM12.7501 12.9894C14.2201 12.9894 15.4651 13.9284 15.8651 15.2168L17.3031 14.8059C17.0106 13.8647 16.4095 13.0393 15.5891 12.4526C14.7688 11.8658 13.7731 11.5489 12.7501 11.5492V12.9894ZM16.0151 14.5428C15.2414 15.4117 14.2806 16.109 13.199 16.5867C12.1174 17.0644 10.9407 17.3112 9.75008 17.3098V18.75C11.1568 18.7513 12.5471 18.4597 13.8252 17.8953C15.1032 17.3309 16.2396 16.5072 17.1541 15.4808L16.0151 14.5428Z" fill="var(--fill-0, #60A5FA)"/>
</g>
</svg>
