<svg preserveAspectRatio="none" width="100%" height="100%" overflow="visible" style="display: block;" viewBox="0 0 19.5 19.4979" fill="none" xmlns="http://www.w3.org/2000/svg">
<g id="Group">
<path id="Vector" d="M18.75 9.74791C18.7528 11.5347 18.2214 13.2815 17.224 14.7639C16.4014 15.9909 15.2891 16.9963 13.9856 17.6912C12.682 18.3861 11.2272 18.749 9.75 18.7479C8.27277 18.749 6.81804 18.3861 5.51444 17.6912C4.21085 16.9963 3.09858 15.9909 2.276 14.7639C1.49273 13.5963 0.993903 12.2615 0.819506 10.8664C0.64511 9.47124 0.799996 8.05467 1.27175 6.7302C1.7435 5.40573 2.519 4.21021 3.53607 3.23947C4.55314 2.26873 5.7835 1.54978 7.12851 1.14025C8.47352 0.730724 9.89577 0.642009 11.2812 0.881219C12.6667 1.12043 13.9769 1.68091 15.1067 2.51773C16.2365 3.35455 17.1546 4.44444 17.7873 5.70002C18.42 6.95559 18.7497 8.34194 18.75 9.74791Z" stroke="var(--stroke-0, #60A5FA)" stroke-width="1.5"/>
<path id="Vector_2" d="M11 6.74791C11 7.43791 10.44 7.99791 9.75 7.99791V9.49791C10.4793 9.49791 11.1788 9.20818 11.6945 8.69246C12.2103 8.17673 12.5 7.47726 12.5 6.74791H11ZM9.75 7.99791C9.06 7.99791 8.5 7.43791 8.5 6.74791H7C7 7.47726 7.28973 8.17673 7.80546 8.69246C8.32118 9.20818 9.02066 9.49791 9.75 9.49791V7.99791ZM8.5 6.74791C8.5 6.05791 9.06 5.49791 9.75 5.49791V3.99791C9.02066 3.99791 8.32118 4.28764 7.80546 4.80337C7.28973 5.31909 7 6.01857 7 6.74791H8.5ZM9.75 5.49791C10.44 5.49791 11 6.05791 11 6.74791H12.5C12.5 6.01857 12.2103 5.31909 11.6945 4.80337C11.1788 4.28764 10.4793 3.99791 9.75 3.99791V5.49791ZM2.916 15.6039L2.197 15.3899L2.08 15.7819L2.347 16.0919L2.916 15.6039ZM16.584 15.6039L17.154 16.0929L17.42 15.7829L17.303 15.3899L16.584 15.6039ZM6.75 13.4979H12.75V11.9979H6.75V13.4979ZM6.75 11.9979C5.72702 11.9976 4.73129 12.3276 3.91094 12.9388C3.09059 13.55 2.48947 14.4096 2.197 15.3899L3.635 15.8179C3.83525 15.1474 4.24658 14.5594 4.80781 14.1414C5.36905 13.7234 6.05021 13.4977 6.75 13.4979V11.9979ZM9.75 17.9979C8.55942 17.9993 7.38271 17.7423 6.30109 17.2447C5.21946 16.7472 4.25866 16.0209 3.485 15.1159L2.347 16.0919C3.26146 17.1609 4.39684 18.0199 5.67489 18.6077C6.95294 19.1955 8.34325 19.4993 9.75 19.4979V17.9979ZM12.75 13.4979C14.22 13.4979 15.465 14.4759 15.865 15.8179L17.303 15.3899C17.0105 14.4096 16.4094 13.55 15.5891 12.9388C14.7687 12.3276 13.773 11.9976 12.75 11.9979V13.4979ZM16.015 15.1159C15.2413 16.0209 14.2805 16.7472 13.1989 17.2447C12.1173 17.7423 10.9406 17.9993 9.75 17.9979V19.4979C11.1568 19.4993 12.5471 19.1955 13.8251 18.6077C15.1032 18.0199 16.2395 17.1619 17.154 16.0929L16.015 15.1159Z" fill="var(--fill-0, #60A5FA)"/>
</g>
</svg>
