<svg preserveAspectRatio="none" width="100%" height="100%" overflow="visible" style="display: block;" viewBox="0 0 73 37" fill="none" xmlns="http://www.w3.org/2000/svg">
<g id="trailer 1">
<path id="Vector" d="M67.85 2.38204C67.85 2.38204 21.5008 2.38204 18.4109 2.38204C15.3209 2.38204 14.9347 4.60074 14.9347 4.60074L10.5572 16.7383L4.11985 20.0011C1.15865 23.7859 1.93114 29.92 1.93114 29.92L6.82356 30.181C6.82356 30.0505 6.82356 30.0505 6.82356 29.92C6.82356 27.3097 8.88352 25.2215 11.4585 25.2215C14.0334 25.2215 16.0934 27.3097 16.0934 29.92C16.0934 30.181 16.0934 30.3115 16.0934 30.5725L19.0546 30.703H47.5079L49.0528 30.5725C49.0528 30.442 49.0528 30.181 49.0528 29.92C49.0528 27.3097 51.1128 25.2215 53.6878 25.2215C56.134 25.2215 58.1939 27.1792 58.3227 29.5284L59.3527 29.3979H69.0087C69.0087 29.3979 69.0087 4.60074 69.0087 3.55665C69.0087 2.25153 67.85 2.38204 67.85 2.38204Z" stroke="var(--stroke-0, #0F1111)" stroke-miterlimit="10" stroke-linecap="round" stroke-linejoin="round"/>
<path id="Vector_2" d="M11.4587 34.618C14.0184 34.618 16.0936 32.5145 16.0936 29.9196C16.0936 27.3247 14.0184 25.2212 11.4587 25.2212C8.89885 25.2212 6.82373 27.3247 6.82373 29.9196C6.82373 32.5145 8.89885 34.618 11.4587 34.618Z" stroke="var(--stroke-0, #0F1111)" stroke-miterlimit="10" stroke-linecap="round" stroke-linejoin="round"/>
<path id="Vector_3" d="M11.4584 32.7908C13.0227 32.7908 14.2909 31.5053 14.2909 29.9196C14.2909 28.3338 13.0227 27.0483 11.4584 27.0483C9.89411 27.0483 8.62598 28.3338 8.62598 29.9196C8.62598 31.5053 9.89411 32.7908 11.4584 32.7908Z" stroke="var(--stroke-0, #0F1111)" stroke-width="0.5" stroke-miterlimit="10" stroke-linecap="round" stroke-linejoin="round"/>
<path id="Vector_4" d="M11.4585 30.7029C11.8852 30.7029 12.231 30.3523 12.231 29.9198C12.231 29.4873 11.8852 29.1367 11.4585 29.1367C11.0319 29.1367 10.686 29.4873 10.686 29.9198C10.686 30.3523 11.0319 30.7029 11.4585 30.7029Z" stroke="var(--stroke-0, #0F1111)" stroke-width="0.5" stroke-miterlimit="10" stroke-linecap="round" stroke-linejoin="round"/>
<path id="Vector_5" d="M11.4587 28.3536C11.6009 28.3536 11.7162 28.2367 11.7162 28.0926C11.7162 27.9484 11.6009 27.8315 11.4587 27.8315C11.3165 27.8315 11.2012 27.9484 11.2012 28.0926C11.2012 28.2367 11.3165 28.3536 11.4587 28.3536Z" stroke="var(--stroke-0, #0F1111)" stroke-width="0.5" stroke-miterlimit="10" stroke-linecap="round" stroke-linejoin="round"/>
<path id="Vector_6" d="M11.4587 32.0079C11.6009 32.0079 11.7162 31.891 11.7162 31.7469C11.7162 31.6027 11.6009 31.4858 11.4587 31.4858C11.3165 31.4858 11.2012 31.6027 11.2012 31.7469C11.2012 31.891 11.3165 32.0079 11.4587 32.0079Z" stroke="var(--stroke-0, #0F1111)" stroke-width="0.5" stroke-miterlimit="10" stroke-linecap="round" stroke-linejoin="round"/>
<path id="Vector_7" d="M9.91375 31.0943C10.056 31.0943 10.1712 30.9774 10.1712 30.8333C10.1712 30.6891 10.056 30.5723 9.91375 30.5723C9.77153 30.5723 9.65625 30.6891 9.65625 30.8333C9.65625 30.9774 9.77153 31.0943 9.91375 31.0943Z" stroke="var(--stroke-0, #0F1111)" stroke-width="0.5" stroke-miterlimit="10" stroke-linecap="round" stroke-linejoin="round"/>
<path id="Vector_8" d="M13.0036 29.2672C13.1458 29.2672 13.2611 29.1503 13.2611 29.0061C13.2611 28.862 13.1458 28.7451 13.0036 28.7451C12.8614 28.7451 12.7461 28.862 12.7461 29.0061C12.7461 29.1503 12.8614 29.2672 13.0036 29.2672Z" stroke="var(--stroke-0, #0F1111)" stroke-width="0.5" stroke-miterlimit="10" stroke-linecap="round" stroke-linejoin="round"/>
<path id="Vector_9" d="M13.0036 31.0943C13.1458 31.0943 13.2611 30.9774 13.2611 30.8333C13.2611 30.6891 13.1458 30.5723 13.0036 30.5723C12.8614 30.5723 12.7461 30.6891 12.7461 30.8333C12.7461 30.9774 12.8614 31.0943 13.0036 31.0943Z" stroke="var(--stroke-0, #0F1111)" stroke-width="0.5" stroke-miterlimit="10" stroke-linecap="round" stroke-linejoin="round"/>
<path id="Vector_10" d="M9.91375 29.2672C10.056 29.2672 10.1712 29.1503 10.1712 29.0061C10.1712 28.862 10.056 28.7451 9.91375 28.7451C9.77153 28.7451 9.65625 28.862 9.65625 29.0061C9.65625 29.1503 9.77153 29.2672 9.91375 29.2672Z" stroke="var(--stroke-0, #0F1111)" stroke-width="0.5" stroke-miterlimit="10" stroke-linecap="round" stroke-linejoin="round"/>
<path id="Vector_11" d="M53.6877 34.618C56.2475 34.618 58.3226 32.5145 58.3226 29.9196C58.3226 27.3247 56.2475 25.2212 53.6877 25.2212C51.1279 25.2212 49.0527 27.3247 49.0527 29.9196C49.0527 32.5145 51.1279 34.618 53.6877 34.618Z" stroke="var(--stroke-0, #0F1111)" stroke-miterlimit="10" stroke-linecap="round" stroke-linejoin="round"/>
<path id="Vector_12" d="M53.6879 32.7908C55.2522 32.7908 56.5204 31.5053 56.5204 29.9196C56.5204 28.3338 55.2522 27.0483 53.6879 27.0483C52.1236 27.0483 50.8555 28.3338 50.8555 29.9196C50.8555 31.5053 52.1236 32.7908 53.6879 32.7908Z" stroke="var(--stroke-0, #0F1111)" stroke-width="0.5" stroke-miterlimit="10" stroke-linecap="round" stroke-linejoin="round"/>
<path id="Vector_13" d="M53.688 30.7029C54.1146 30.7029 54.4605 30.3523 54.4605 29.9198C54.4605 29.4873 54.1146 29.1367 53.688 29.1367C53.2614 29.1367 52.9155 29.4873 52.9155 29.9198C52.9155 30.3523 53.2614 30.7029 53.688 30.7029Z" stroke="var(--stroke-0, #0F1111)" stroke-width="0.5" stroke-miterlimit="10" stroke-linecap="round" stroke-linejoin="round"/>
<path id="Vector_14" d="M53.6877 28.3536C53.8299 28.3536 53.9452 28.2367 53.9452 28.0926C53.9452 27.9484 53.8299 27.8315 53.6877 27.8315C53.5455 27.8315 53.4302 27.9484 53.4302 28.0926C53.4302 28.2367 53.5455 28.3536 53.6877 28.3536Z" stroke="var(--stroke-0, #0F1111)" stroke-width="0.5" stroke-miterlimit="10" stroke-linecap="round" stroke-linejoin="round"/>
<path id="Vector_15" d="M53.6877 32.0079C53.8299 32.0079 53.9452 31.891 53.9452 31.7469C53.9452 31.6027 53.8299 31.4858 53.6877 31.4858C53.5455 31.4858 53.4302 31.6027 53.4302 31.7469C53.4302 31.891 53.5455 32.0079 53.6877 32.0079Z" stroke="var(--stroke-0, #0F1111)" stroke-width="0.5" stroke-miterlimit="10" stroke-linecap="round" stroke-linejoin="round"/>
<path id="Vector_16" d="M52.1428 31.0943C52.285 31.0943 52.4002 30.9774 52.4002 30.8333C52.4002 30.6891 52.285 30.5723 52.1428 30.5723C52.0005 30.5723 51.8853 30.6891 51.8853 30.8333C51.8853 30.9774 52.0005 31.0943 52.1428 31.0943Z" stroke="var(--stroke-0, #0F1111)" stroke-width="0.5" stroke-miterlimit="10" stroke-linecap="round" stroke-linejoin="round"/>
<path id="Vector_17" d="M55.2326 29.2672C55.3748 29.2672 55.4901 29.1503 55.4901 29.0061C55.4901 28.862 55.3748 28.7451 55.2326 28.7451C55.0904 28.7451 54.9751 28.862 54.9751 29.0061C54.9751 29.1503 55.0904 29.2672 55.2326 29.2672Z" stroke="var(--stroke-0, #0F1111)" stroke-width="0.5" stroke-miterlimit="10" stroke-linecap="round" stroke-linejoin="round"/>
<path id="Vector_18" d="M55.2326 31.0943C55.3748 31.0943 55.4901 30.9774 55.4901 30.8333C55.4901 30.6891 55.3748 30.5723 55.2326 30.5723C55.0904 30.5723 54.9751 30.6891 54.9751 30.8333C54.9751 30.9774 55.0904 31.0943 55.2326 31.0943Z" stroke="var(--stroke-0, #0F1111)" stroke-width="0.5" stroke-miterlimit="10" stroke-linecap="round" stroke-linejoin="round"/>
<path id="Vector_19" d="M52.1428 29.2672C52.285 29.2672 52.4002 29.1503 52.4002 29.0061C52.4002 28.862 52.285 28.7451 52.1428 28.7451C52.0005 28.7451 51.8853 28.862 51.8853 29.0061C51.8853 29.1503 52.0005 29.2672 52.1428 29.2672Z" stroke="var(--stroke-0, #0F1111)" stroke-width="0.5" stroke-miterlimit="10" stroke-linecap="round" stroke-linejoin="round"/>
<path id="Vector_20" d="M29.6119 29.1367V6.94971H18.5396V25.3518C18.5396 25.8739 18.797 26.6569 19.1833 26.918L20.7283 28.4841C21.1145 28.8756 21.7582 29.1367 22.2732 29.1367H29.6119Z" stroke="var(--stroke-0, #0F1111)" stroke-width="0.5" stroke-miterlimit="10" stroke-linecap="round" stroke-linejoin="round"/>
<path id="Vector_21" d="M15.8358 7.47168C15.3208 7.47168 14.8058 7.86322 14.6771 8.38526L12.4884 15.3024C12.3596 15.8244 12.6171 16.2159 13.1321 16.2159H15.8358C16.3508 16.2159 16.7371 15.8244 16.7371 15.3024V8.51577C16.8658 7.86322 16.3508 7.47168 15.8358 7.47168Z" stroke="var(--stroke-0, #0F1111)" stroke-miterlimit="10" stroke-linecap="round" stroke-linejoin="round"/>
<path id="Vector_22" d="M14.9346 4.33936H68.8799M32.9593 20.3923H66.6912M32.9593 6.81907H66.6912" stroke="var(--stroke-0, #0F1111)" stroke-width="0.5" stroke-miterlimit="10" stroke-linecap="round" stroke-linejoin="round"/>
<path id="Vector_23" d="M6.30867 26.7874H1.93124C1.8025 28.6146 1.93124 30.0502 1.93124 30.0502L5.40744 30.1807C5.40744 28.8756 5.66493 27.701 6.30867 26.7874ZM2.96123 21.9585C2.44624 23.2636 2.05999 24.5687 1.93124 25.8738C1.93124 25.8738 2.31749 25.8738 2.70373 25.8738C3.08997 25.8738 3.47622 25.4823 3.60497 24.9603L3.99121 23.0026C4.11996 22.35 3.99121 21.9585 3.60497 21.9585C3.21872 21.9585 2.96123 21.9585 2.96123 21.9585Z" stroke="var(--stroke-0, #0F1111)" stroke-miterlimit="10" stroke-linecap="round" stroke-linejoin="round"/>
<path id="Vector_24" d="M29.6118 4.33936V30.7027M30.6418 4.33936V30.7027" stroke="var(--stroke-0, #0F1111)" stroke-width="0.5" stroke-miterlimit="10" stroke-linecap="round" stroke-linejoin="round"/>
<path id="Vector_25" d="M69.0086 28.6149C69.0086 29.1369 69.0086 29.398 69.0086 29.398H62.5712V30.9641H71.1973V28.7454H69.0086V28.6149ZM15.8358 25.4826C13.5183 23.1334 9.6559 23.1334 7.2097 25.4826C5.92222 26.7877 5.40723 28.3539 5.40723 30.0505H6.82345C6.82345 29.92 6.82345 29.92 6.82345 29.7895C6.82345 27.1793 8.88342 25.0911 11.4584 25.0911C14.0333 25.0911 16.0933 27.1793 16.0933 29.7895C16.0933 30.0505 16.0933 30.181 16.0933 30.442L19.0545 30.5726H20.857L15.8358 25.4826Z" stroke="var(--stroke-0, #0F1111)" stroke-miterlimit="10" stroke-linecap="round" stroke-linejoin="round"/>
<path id="Vector_26" d="M4.63477 26.7875C5.7935 24.1773 8.36845 22.3501 11.4584 22.3501C8.4972 22.3501 5.92224 24.1773 4.63477 26.7875ZM61.1551 29.3977C60.8976 25.4824 57.6789 22.3501 53.6877 22.3501C57.6789 22.3501 60.8976 25.3519 61.1551 29.3977Z" stroke="var(--stroke-0, #0F1111)" stroke-width="0.5" stroke-miterlimit="10" stroke-linecap="round" stroke-linejoin="round"/>
<path id="Vector_27" d="M53.6879 23.6553C50.3404 23.6553 47.6367 26.396 47.6367 29.7893C47.6367 30.0503 47.6367 30.3114 47.6367 30.5724L49.0529 30.4419C49.0529 30.3114 49.0529 30.0503 49.0529 29.7893C49.0529 27.1791 51.1129 25.0909 53.6879 25.0909C56.1341 25.0909 58.194 27.0486 58.3228 29.3978L59.3528 29.2673H59.739C59.4815 26.135 56.9066 23.6553 53.6879 23.6553Z" stroke="var(--stroke-0, #0F1111)" stroke-miterlimit="10" stroke-linecap="round" stroke-linejoin="round"/>
<path id="Vector_28" d="M20.3422 18.4346H19.4409V21.3058H20.3422V18.4346Z" stroke="var(--stroke-0, #0F1111)" stroke-width="0.5" stroke-miterlimit="10" stroke-linecap="round" stroke-linejoin="round"/>
<path id="Vector_29" d="M66.8199 26.5264H64.8887V27.4399H66.8199V26.5264Z" stroke="var(--stroke-0, #0F1111)" stroke-width="0.5" stroke-miterlimit="10" stroke-linecap="round" stroke-linejoin="round"/>
<path id="Vector_30" d="M34.8907 26.5264H32.9595V27.4399H34.8907V26.5264Z" stroke="var(--stroke-0, #0F1111)" stroke-width="0.5" stroke-miterlimit="10" stroke-linecap="round" stroke-linejoin="round"/>
<path id="Vector_31" d="M27.2945 7.73291H20.8571C20.0847 7.73291 19.4409 8.38547 19.4409 9.16854V15.6941C19.4409 16.4772 20.0847 17.1297 20.8571 17.1297H27.2945C28.067 17.1297 28.7108 16.4772 28.7108 15.6941V9.16854C28.7108 8.38547 28.067 7.73291 27.2945 7.73291ZM27.8095 15.6941C27.8095 15.9551 27.552 16.2162 27.2945 16.2162H20.8571C20.5996 16.2162 20.3422 15.9551 20.3422 15.6941V9.16854C20.3422 8.90751 20.5996 8.64649 20.8571 8.64649H27.2945C27.552 8.64649 27.8095 8.90751 27.8095 9.16854V15.6941Z" stroke="var(--stroke-0, #0F1111)" stroke-width="0.5" stroke-miterlimit="10" stroke-linecap="round" stroke-linejoin="round"/>
<path id="Vector_32" d="M24.076 8.64648V16.3467V16.2162M24.076 8.64648H27.2947C27.5522 8.64648 27.8097 8.90751 27.8097 9.16853V15.6941C27.8097 15.9551 27.5522 16.2162 27.2947 16.2162H24.076M24.076 8.64648H20.8573C20.5998 8.64648 20.3423 8.90751 20.3423 9.16853V15.6941C20.3423 15.9551 20.5998 16.2162 20.8573 16.2162H24.076" stroke="var(--stroke-0, #0F1111)" stroke-width="0.5" stroke-miterlimit="10" stroke-linecap="round" stroke-linejoin="round"/>
</g>
</svg>
