<svg width="408" height="189" viewBox="0 0 408 189" fill="none" xmlns="http://www.w3.org/2000/svg">
<rect x="0.5" y="0.5" width="407" height="188" rx="4.5" stroke="#9747FF" stroke-dasharray="10 5"/>
<rect x="20.5" y="20.5" width="47" height="55" rx="7.5" stroke="#E2E2E2"/>
<rect x="108.5" y="20.5" width="47" height="55" rx="7.5" stroke="#E03C31"/>
<path d="M133.195 42.0625V53.5H131.75V43.8672L128.836 44.9297V43.625L132.969 42.0625H133.195Z" fill="#0C2340"/>
<rect x="196.5" y="20.5" width="47" height="55" rx="7.5" stroke="#E2E2E2"/>
<path d="M223.586 46.9062V48.6406C223.586 49.5729 223.503 50.3594 223.336 51C223.169 51.6406 222.93 52.1562 222.617 52.5469C222.305 52.9375 221.927 53.2214 221.484 53.3984C221.047 53.5703 220.552 53.6562 220 53.6562C219.562 53.6562 219.159 53.6016 218.789 53.4922C218.419 53.3828 218.086 53.2083 217.789 52.9688C217.497 52.724 217.247 52.4062 217.039 52.0156C216.831 51.625 216.672 51.151 216.562 50.5938C216.453 50.0365 216.398 49.3854 216.398 48.6406V46.9062C216.398 45.974 216.482 45.1927 216.648 44.5625C216.82 43.9323 217.062 43.4271 217.375 43.0469C217.688 42.6615 218.062 42.3854 218.5 42.2188C218.943 42.0521 219.438 41.9688 219.984 41.9688C220.427 41.9688 220.833 42.0234 221.203 42.1328C221.578 42.237 221.911 42.4062 222.203 42.6406C222.495 42.8698 222.742 43.1771 222.945 43.5625C223.154 43.9427 223.312 44.4089 223.422 44.9609C223.531 45.513 223.586 46.1615 223.586 46.9062ZM222.133 48.875V46.6641C222.133 46.1536 222.102 45.7057 222.039 45.3203C221.982 44.9297 221.896 44.5964 221.781 44.3203C221.667 44.0443 221.521 43.8203 221.344 43.6484C221.172 43.4766 220.971 43.3516 220.742 43.2734C220.518 43.1901 220.266 43.1484 219.984 43.1484C219.641 43.1484 219.336 43.2135 219.07 43.3438C218.805 43.4688 218.581 43.6693 218.398 43.9453C218.221 44.2214 218.086 44.5833 217.992 45.0312C217.898 45.4792 217.852 46.0234 217.852 46.6641V48.875C217.852 49.3854 217.88 49.8359 217.938 50.2266C218 50.6172 218.091 50.9557 218.211 51.2422C218.331 51.5234 218.477 51.7552 218.648 51.9375C218.82 52.1198 219.018 52.2552 219.242 52.3438C219.471 52.4271 219.724 52.4688 220 52.4688C220.354 52.4688 220.664 52.401 220.93 52.2656C221.195 52.1302 221.417 51.9193 221.594 51.6328C221.776 51.3411 221.911 50.9688 222 50.5156C222.089 50.0573 222.133 49.5104 222.133 48.875Z" fill="#0C2340"/>
<rect x="276.5" y="20.5" width="47" height="55" rx="7.5" stroke="#00C389"/>
<path d="M303.586 46.9062V48.6406C303.586 49.5729 303.503 50.3594 303.336 51C303.169 51.6406 302.93 52.1562 302.617 52.5469C302.305 52.9375 301.927 53.2214 301.484 53.3984C301.047 53.5703 300.552 53.6562 300 53.6562C299.562 53.6562 299.159 53.6016 298.789 53.4922C298.419 53.3828 298.086 53.2083 297.789 52.9688C297.497 52.724 297.247 52.4062 297.039 52.0156C296.831 51.625 296.672 51.151 296.562 50.5938C296.453 50.0365 296.398 49.3854 296.398 48.6406V46.9062C296.398 45.974 296.482 45.1927 296.648 44.5625C296.82 43.9323 297.062 43.4271 297.375 43.0469C297.688 42.6615 298.062 42.3854 298.5 42.2188C298.943 42.0521 299.438 41.9688 299.984 41.9688C300.427 41.9688 300.833 42.0234 301.203 42.1328C301.578 42.237 301.911 42.4062 302.203 42.6406C302.495 42.8698 302.742 43.1771 302.945 43.5625C303.154 43.9427 303.312 44.4089 303.422 44.9609C303.531 45.513 303.586 46.1615 303.586 46.9062ZM302.133 48.875V46.6641C302.133 46.1536 302.102 45.7057 302.039 45.3203C301.982 44.9297 301.896 44.5964 301.781 44.3203C301.667 44.0443 301.521 43.8203 301.344 43.6484C301.172 43.4766 300.971 43.3516 300.742 43.2734C300.518 43.1901 300.266 43.1484 299.984 43.1484C299.641 43.1484 299.336 43.2135 299.07 43.3438C298.805 43.4688 298.581 43.6693 298.398 43.9453C298.221 44.2214 298.086 44.5833 297.992 45.0312C297.898 45.4792 297.852 46.0234 297.852 46.6641V48.875C297.852 49.3854 297.88 49.8359 297.938 50.2266C298 50.6172 298.091 50.9557 298.211 51.2422C298.331 51.5234 298.477 51.7552 298.648 51.9375C298.82 52.1198 299.018 52.2552 299.242 52.3438C299.471 52.4271 299.724 52.4688 300 52.4688C300.354 52.4688 300.664 52.401 300.93 52.2656C301.195 52.1302 301.417 51.9193 301.594 51.6328C301.776 51.3411 301.911 50.9688 302 50.5156C302.089 50.0573 302.133 49.5104 302.133 48.875Z" fill="#0C2340"/>
<rect x="20.5" y="112.5" width="39" height="39" rx="7.5" stroke="#E2E2E2"/>
<rect x="108.5" y="112.5" width="39" height="39" rx="7.5" stroke="#E03C31"/>
<path d="M129.195 126.062V137.5H127.75V127.867L124.836 128.93V127.625L128.969 126.062H129.195Z" fill="#0C2340"/>
<rect x="196.5" y="112.5" width="39" height="39" rx="7.5" stroke="#E2E2E2"/>
<path d="M219.586 130.906V132.641C219.586 133.573 219.503 134.359 219.336 135C219.169 135.641 218.93 136.156 218.617 136.547C218.305 136.938 217.927 137.221 217.484 137.398C217.047 137.57 216.552 137.656 216 137.656C215.562 137.656 215.159 137.602 214.789 137.492C214.419 137.383 214.086 137.208 213.789 136.969C213.497 136.724 213.247 136.406 213.039 136.016C212.831 135.625 212.672 135.151 212.562 134.594C212.453 134.036 212.398 133.385 212.398 132.641V130.906C212.398 129.974 212.482 129.193 212.648 128.562C212.82 127.932 213.062 127.427 213.375 127.047C213.688 126.661 214.062 126.385 214.5 126.219C214.943 126.052 215.438 125.969 215.984 125.969C216.427 125.969 216.833 126.023 217.203 126.133C217.578 126.237 217.911 126.406 218.203 126.641C218.495 126.87 218.742 127.177 218.945 127.562C219.154 127.943 219.312 128.409 219.422 128.961C219.531 129.513 219.586 130.161 219.586 130.906ZM218.133 132.875V130.664C218.133 130.154 218.102 129.706 218.039 129.32C217.982 128.93 217.896 128.596 217.781 128.32C217.667 128.044 217.521 127.82 217.344 127.648C217.172 127.477 216.971 127.352 216.742 127.273C216.518 127.19 216.266 127.148 215.984 127.148C215.641 127.148 215.336 127.214 215.07 127.344C214.805 127.469 214.581 127.669 214.398 127.945C214.221 128.221 214.086 128.583 213.992 129.031C213.898 129.479 213.852 130.023 213.852 130.664V132.875C213.852 133.385 213.88 133.836 213.938 134.227C214 134.617 214.091 134.956 214.211 135.242C214.331 135.523 214.477 135.755 214.648 135.938C214.82 136.12 215.018 136.255 215.242 136.344C215.471 136.427 215.724 136.469 216 136.469C216.354 136.469 216.664 136.401 216.93 136.266C217.195 136.13 217.417 135.919 217.594 135.633C217.776 135.341 217.911 134.969 218 134.516C218.089 134.057 218.133 133.51 218.133 132.875Z" fill="#0C2340"/>
<rect x="276.5" y="112.5" width="39" height="39" rx="7.5" stroke="#00C389"/>
<path d="M299.586 130.906V132.641C299.586 133.573 299.503 134.359 299.336 135C299.169 135.641 298.93 136.156 298.617 136.547C298.305 136.938 297.927 137.221 297.484 137.398C297.047 137.57 296.552 137.656 296 137.656C295.562 137.656 295.159 137.602 294.789 137.492C294.419 137.383 294.086 137.208 293.789 136.969C293.497 136.724 293.247 136.406 293.039 136.016C292.831 135.625 292.672 135.151 292.562 134.594C292.453 134.036 292.398 133.385 292.398 132.641V130.906C292.398 129.974 292.482 129.193 292.648 128.562C292.82 127.932 293.062 127.427 293.375 127.047C293.688 126.661 294.062 126.385 294.5 126.219C294.943 126.052 295.438 125.969 295.984 125.969C296.427 125.969 296.833 126.023 297.203 126.133C297.578 126.237 297.911 126.406 298.203 126.641C298.495 126.87 298.742 127.177 298.945 127.562C299.154 127.943 299.312 128.409 299.422 128.961C299.531 129.513 299.586 130.161 299.586 130.906ZM298.133 132.875V130.664C298.133 130.154 298.102 129.706 298.039 129.32C297.982 128.93 297.896 128.596 297.781 128.32C297.667 128.044 297.521 127.82 297.344 127.648C297.172 127.477 296.971 127.352 296.742 127.273C296.518 127.19 296.266 127.148 295.984 127.148C295.641 127.148 295.336 127.214 295.07 127.344C294.805 127.469 294.581 127.669 294.398 127.945C294.221 128.221 294.086 128.583 293.992 129.031C293.898 129.479 293.852 130.023 293.852 130.664V132.875C293.852 133.385 293.88 133.836 293.938 134.227C294 134.617 294.091 134.956 294.211 135.242C294.331 135.523 294.477 135.755 294.648 135.938C294.82 136.12 295.018 136.255 295.242 136.344C295.471 136.427 295.724 136.469 296 136.469C296.354 136.469 296.664 136.401 296.93 136.266C297.195 136.13 297.417 135.919 297.594 135.633C297.776 135.341 297.911 134.969 298 134.516C298.089 134.057 298.133 133.51 298.133 132.875Z" fill="#0C2340"/>
</svg>
