<svg preserveAspectRatio="none" width="100%" height="100%" overflow="visible" style="display: block;" viewBox="0 0 24 24" fill="none" xmlns="http://www.w3.org/2000/svg">
<g id="material-symbols:warning-outline-rounded">
<path id="Vector" d="M2.72422 21C2.54089 21 2.37422 20.9543 2.22422 20.863C2.07422 20.7717 1.95756 20.6507 1.87422 20.5C1.79089 20.3493 1.74522 20.1867 1.73722 20.012C1.72922 19.8373 1.77489 19.6667 1.87422 19.5L11.1242 3.5C11.2242 3.33333 11.3536 3.20833 11.5122 3.125C11.6709 3.04167 11.8332 3 11.9992 3C12.1652 3 12.3279 3.04167 12.4872 3.125C12.6466 3.20833 12.7756 3.33333 12.8742 3.5L22.1242 19.5C22.2242 19.6667 22.2702 19.8377 22.2622 20.013C22.2542 20.1883 22.2082 20.3507 22.1242 20.5C22.0402 20.6493 21.9236 20.7703 21.7742 20.863C21.6249 20.9557 21.4582 21.0013 21.2742 21H2.72422ZM4.44922 19H19.5492L11.9992 6L4.44922 19ZM11.9992 18C12.2826 18 12.5202 17.904 12.7122 17.712C12.9042 17.52 12.9999 17.2827 12.9992 17C12.9986 16.7173 12.9026 16.48 12.7112 16.288C12.5199 16.096 12.2826 16 11.9992 16C11.7159 16 11.4786 16.096 11.2872 16.288C11.0959 16.48 10.9999 16.7173 10.9992 17C10.9986 17.2827 11.0946 17.5203 11.2872 17.713C11.4799 17.9057 11.7172 18.0013 11.9992 18ZM11.9992 15C12.2826 15 12.5202 14.904 12.7122 14.712C12.9042 14.52 12.9999 14.2827 12.9992 14V11C12.9992 10.7167 12.9032 10.4793 12.7112 10.288C12.5192 10.0967 12.2819 10.0007 11.9992 10C11.7166 9.99933 11.4792 10.0953 11.2872 10.288C11.0952 10.4807 10.9992 10.718 10.9992 11V14C10.9992 14.2833 11.0952 14.521 11.2872 14.713C11.4792 14.905 11.7166 15.0007 11.9992 15Z" fill="var(--fill-0, #202224)"/>
</g>
</svg>
