<svg preserveAspectRatio="none" width="100%" height="100%" overflow="visible" style="display: block;" viewBox="0 0 21.5 21.5" fill="none" xmlns="http://www.w3.org/2000/svg">
<g id="Group">
<path id="Vector" d="M9.757 19.75H8.355C4.77 19.75 2.978 19.75 1.864 18.615C0.750001 17.48 0.750001 15.653 0.750001 12C0.750001 8.347 0.750001 6.52 1.864 5.385C2.978 4.25 4.77 4.25 8.355 4.25H12.158C15.743 4.25 17.536 4.25 18.65 5.385C19.507 6.258 19.704 7.541 19.75 9.75" stroke="var(--stroke-0, #60A5FA)" stroke-width="1.5" stroke-linecap="round" stroke-linejoin="round"/>
<path id="Vector_2" d="M18.767 18.773L20.75 20.75M14.75 4.25L14.65 3.94C14.155 2.4 13.908 1.63 13.319 1.19C12.729 0.750002 11.947 0.750002 10.38 0.750002H10.117C8.552 0.750002 7.769 0.750002 7.18 1.19C6.59 1.63 6.343 2.4 5.848 3.94L5.75 4.25M19.803 16.276C19.8109 15.8079 19.7255 15.3429 19.5518 14.9081C19.3781 14.4734 19.1196 14.0776 18.7914 13.7437C18.4631 13.4099 18.0717 13.1448 17.6399 12.9638C17.2082 12.7828 16.7447 12.6896 16.2765 12.6896C15.8083 12.6896 15.3448 12.7828 14.9131 12.9638C14.4813 13.1448 14.0899 13.4099 13.7616 13.7437C13.4334 14.0776 13.1749 14.4734 13.0012 14.9081C12.8275 15.3429 12.7421 15.8079 12.75 16.276C12.7656 17.201 13.144 18.0829 13.8036 18.7315C14.4633 19.3801 15.3514 19.7436 16.2765 19.7436C17.2016 19.7436 18.0897 19.3801 18.7494 18.7315C19.409 18.0829 19.7874 17.201 19.803 16.276Z" stroke="var(--stroke-0, #60A5FA)" stroke-width="1.5" stroke-linecap="round" stroke-linejoin="round"/>
</g>
</svg>
