<svg preserveAspectRatio="none" width="100%" height="100%" overflow="visible" style="display: block;" viewBox="0 0 24 24" fill="none" xmlns="http://www.w3.org/2000/svg">
<g id="ic:outline-history">
<path id="Vector" d="M13 3C10.6131 3 8.32387 3.94821 6.63604 5.63604C4.94821 7.32387 4 9.61305 4 12H1L4.89 15.89L4.96 16.03L9 12H6C6 8.13 9.13 5 13 5C16.87 5 20 8.13 20 12C20 15.87 16.87 19 13 19C11.07 19 9.32 18.21 8.06 16.94L6.64 18.36C7.47328 19.1982 8.46433 19.863 9.55594 20.3162C10.6475 20.7693 11.8181 21.0017 13 21C15.3869 21 17.6761 20.0518 19.364 18.364C21.0518 16.6761 22 14.3869 22 12C22 9.61305 21.0518 7.32387 19.364 5.63604C17.6761 3.94821 15.3869 3 13 3ZM12 8V13L16.25 15.52L17.02 14.24L13.5 12.15V8H12Z" fill="var(--fill-0, #60A5FA)"/>
</g>
</svg>
