<svg preserveAspectRatio="none" width="100%" height="100%" overflow="visible" style="display: block;" viewBox="0 0 16 20" fill="none" xmlns="http://www.w3.org/2000/svg">
<path id="Vector" d="M7.80488 0C8.87805 0 9.7561 0.9 9.7561 2C9.7561 3.1 8.87805 4 7.80488 4C6.73171 4 5.85366 3.1 5.85366 2C5.85366 0.9 6.73171 0 7.80488 0ZM11.6098 6.1C11.2195 5.7 10.5366 5 9.26829 5H6.82927C4.09756 5 1.95122 2.8 1.95122 0H0C0 3.2 2.04878 5.8 4.87805 6.7V20H6.82927V14H8.78049V20H10.7317V8.1L14.6341 12L16 10.6L11.6098 6.1Z" fill="var(--fill-0, #60A5FA)"/>
</svg>
