<svg preserveAspectRatio="none" width="100%" height="100%" overflow="visible" style="display: block;" viewBox="0 0 78 42" fill="none" xmlns="http://www.w3.org/2000/svg">
<g id="truck 1">
<path id="Vector" d="M19.8097 40.3278C22.6208 40.3278 24.8996 38.049 24.8996 35.2379C24.8996 32.4268 22.6208 30.1479 19.8097 30.1479C16.9986 30.1479 14.7197 32.4268 14.7197 35.2379C14.7197 38.049 16.9986 40.3278 19.8097 40.3278Z" stroke="var(--stroke-0, #0F1111)" stroke-miterlimit="10" stroke-linecap="round" stroke-linejoin="round"/>
<path id="Vector_2" d="M61.9049 40.3278C64.716 40.3278 66.9948 38.049 66.9948 35.2379C66.9948 32.4268 64.716 30.1479 61.9049 30.1479C59.0938 30.1479 56.8149 32.4268 56.8149 35.2379C56.8149 38.049 59.0938 40.3278 61.9049 40.3278Z" stroke="var(--stroke-0, #0F1111)" stroke-miterlimit="10" stroke-linecap="round" stroke-linejoin="round"/>
<path id="Vector_3" d="M14.3067 8.13738C15.6823 8.13738 17.8834 7.99981 19.3966 7.86225V7.17442C19.3966 6.89928 19.259 6.76172 18.9839 6.76172H12.6559C12.3807 6.76172 12.2432 6.89928 12.2432 7.17442V8.13738C12.931 8.27495 13.6188 8.27495 14.3067 8.13738Z" stroke="var(--stroke-0, #0F1111)" stroke-width="0.5" stroke-miterlimit="10" stroke-linecap="round" stroke-linejoin="round"/>
<path id="Vector_4" d="M55.0263 30.2856H26.5501C25.8623 29.3226 24.8993 28.4972 23.7988 27.947V26.021H23.111C23.111 26.021 22.9734 10.4761 22.9734 9.1004C22.9734 7.86231 21.7353 7.8623 21.7353 7.8623C21.7353 7.8623 16.9205 8.13744 14.3067 8.13744C11.693 8.275 8.39139 8.41257 7.01573 9.1004C5.64007 9.65067 5.36493 11.1639 5.36493 11.1639C1.23795 22.857 2.20091 30.148 2.20091 30.148H3.02631V30.9734H1.92578C1.92578 33.0369 2.06335 34.4126 2.06335 34.4126L3.71414 35.238L4.81467 34.5501L13.4813 34.6877C13.7565 31.3861 16.5078 28.9099 19.8094 28.9099C23.2485 28.9099 26.1374 31.7988 26.1374 35.238C26.1374 35.5131 26.1374 35.7882 26.1374 36.0634H54.3385C54.3385 36.0634 54.3385 34.1374 54.3385 31.7988C54.3385 31.3861 54.6136 30.8358 55.0263 30.2856Z" stroke="var(--stroke-0, #0F1111)" stroke-miterlimit="10" stroke-linecap="round" stroke-linejoin="round"/>
<path id="Vector_5" d="M19.8093 38.1269C21.4048 38.1269 22.6982 36.8335 22.6982 35.238C22.6982 33.6425 21.4048 32.3491 19.8093 32.3491C18.2138 32.3491 16.9204 33.6425 16.9204 35.238C16.9204 36.8335 18.2138 38.1269 19.8093 38.1269Z" stroke="var(--stroke-0, #0F1111)" stroke-width="0.5" stroke-miterlimit="10" stroke-linecap="round" stroke-linejoin="round"/>
<path id="Vector_6" d="M19.8096 38.8146C21.785 38.8146 23.3863 37.2132 23.3863 35.2379C23.3863 33.2625 21.785 31.6611 19.8096 31.6611C17.8343 31.6611 16.2329 33.2625 16.2329 35.2379C16.2329 37.2132 17.8343 38.8146 19.8096 38.8146Z" stroke="var(--stroke-0, #0F1111)" stroke-width="0.5" stroke-miterlimit="10" stroke-linecap="round" stroke-linejoin="round"/>
<path id="Vector_7" d="M19.8093 36.0634C20.2651 36.0634 20.6347 35.6939 20.6347 35.238C20.6347 34.7821 20.2651 34.4126 19.8093 34.4126C19.3534 34.4126 18.9839 34.7821 18.9839 35.238C18.9839 35.6939 19.3534 36.0634 19.8093 36.0634Z" stroke="var(--stroke-0, #0F1111)" stroke-width="0.5" stroke-miterlimit="10" stroke-linecap="round" stroke-linejoin="round"/>
<path id="Vector_8" d="M19.8093 33.7251C19.9613 33.7251 20.0844 33.6019 20.0844 33.4499C20.0844 33.298 19.9613 33.1748 19.8093 33.1748C19.6574 33.1748 19.5342 33.298 19.5342 33.4499C19.5342 33.6019 19.6574 33.7251 19.8093 33.7251Z" stroke="var(--stroke-0, #0F1111)" stroke-width="0.5" stroke-miterlimit="10" stroke-linecap="round" stroke-linejoin="round"/>
<path id="Vector_9" d="M19.8093 37.4389C19.9613 37.4389 20.0844 37.3158 20.0844 37.1638C20.0844 37.0118 19.9613 36.8887 19.8093 36.8887C19.6574 36.8887 19.5342 37.0118 19.5342 37.1638C19.5342 37.3158 19.6574 37.4389 19.8093 37.4389Z" stroke="var(--stroke-0, #0F1111)" stroke-width="0.5" stroke-miterlimit="10" stroke-linecap="round" stroke-linejoin="round"/>
<path id="Vector_10" d="M18.1589 36.476C18.3109 36.476 18.4341 36.3529 18.4341 36.2009C18.4341 36.049 18.3109 35.9258 18.1589 35.9258C18.007 35.9258 17.8838 36.049 17.8838 36.2009C17.8838 36.3529 18.007 36.476 18.1589 36.476Z" stroke="var(--stroke-0, #0F1111)" stroke-width="0.5" stroke-miterlimit="10" stroke-linecap="round" stroke-linejoin="round"/>
<path id="Vector_11" d="M21.4602 34.688C21.6121 34.688 21.7353 34.5648 21.7353 34.4128C21.7353 34.2609 21.6121 34.1377 21.4602 34.1377C21.3082 34.1377 21.1851 34.2609 21.1851 34.4128C21.1851 34.5648 21.3082 34.688 21.4602 34.688Z" stroke="var(--stroke-0, #0F1111)" stroke-width="0.5" stroke-miterlimit="10" stroke-linecap="round" stroke-linejoin="round"/>
<path id="Vector_12" d="M21.4602 36.476C21.6121 36.476 21.7353 36.3529 21.7353 36.2009C21.7353 36.049 21.6121 35.9258 21.4602 35.9258C21.3082 35.9258 21.1851 36.049 21.1851 36.2009C21.1851 36.3529 21.3082 36.476 21.4602 36.476Z" stroke="var(--stroke-0, #0F1111)" stroke-width="0.5" stroke-miterlimit="10" stroke-linecap="round" stroke-linejoin="round"/>
<path id="Vector_13" d="M18.1589 34.688C18.3109 34.688 18.4341 34.5648 18.4341 34.4128C18.4341 34.2609 18.3109 34.1377 18.1589 34.1377C18.007 34.1377 17.8838 34.2609 17.8838 34.4128C17.8838 34.5648 18.007 34.688 18.1589 34.688Z" stroke="var(--stroke-0, #0F1111)" stroke-width="0.5" stroke-miterlimit="10" stroke-linecap="round" stroke-linejoin="round"/>
<path id="Vector_14" d="M61.905 38.1269C63.5005 38.1269 64.7939 36.8335 64.7939 35.238C64.7939 33.6425 63.5005 32.3491 61.905 32.3491C60.3095 32.3491 59.0161 33.6425 59.0161 35.238C59.0161 36.8335 60.3095 38.1269 61.905 38.1269Z" stroke="var(--stroke-0, #0F1111)" stroke-width="0.5" stroke-miterlimit="10" stroke-linecap="round" stroke-linejoin="round"/>
<path id="Vector_15" d="M61.9048 38.8146C63.8802 38.8146 65.4816 37.2132 65.4816 35.2379C65.4816 33.2625 63.8802 31.6611 61.9048 31.6611C59.9295 31.6611 58.3281 33.2625 58.3281 35.2379C58.3281 37.2132 59.9295 38.8146 61.9048 38.8146Z" stroke="var(--stroke-0, #0F1111)" stroke-width="0.5" stroke-miterlimit="10" stroke-linecap="round" stroke-linejoin="round"/>
<path id="Vector_16" d="M61.905 36.0634C62.3608 36.0634 62.7304 35.6939 62.7304 35.238C62.7304 34.7821 62.3608 34.4126 61.905 34.4126C61.4491 34.4126 61.0796 34.7821 61.0796 35.238C61.0796 35.6939 61.4491 36.0634 61.905 36.0634Z" stroke="var(--stroke-0, #0F1111)" stroke-width="0.5" stroke-miterlimit="10" stroke-linecap="round" stroke-linejoin="round"/>
<path id="Vector_17" d="M61.9045 33.7251C62.0565 33.7251 62.1797 33.6019 62.1797 33.4499C62.1797 33.298 62.0565 33.1748 61.9045 33.1748C61.7526 33.1748 61.6294 33.298 61.6294 33.4499C61.6294 33.6019 61.7526 33.7251 61.9045 33.7251Z" stroke="var(--stroke-0, #0F1111)" stroke-width="0.5" stroke-miterlimit="10" stroke-linecap="round" stroke-linejoin="round"/>
<path id="Vector_18" d="M61.9045 37.4389C62.0565 37.4389 62.1797 37.3158 62.1797 37.1638C62.1797 37.0118 62.0565 36.8887 61.9045 36.8887C61.7526 36.8887 61.6294 37.0118 61.6294 37.1638C61.6294 37.3158 61.7526 37.4389 61.9045 37.4389Z" stroke="var(--stroke-0, #0F1111)" stroke-width="0.5" stroke-miterlimit="10" stroke-linecap="round" stroke-linejoin="round"/>
<path id="Vector_19" d="M60.2541 36.476C60.4061 36.476 60.5293 36.3529 60.5293 36.2009C60.5293 36.049 60.4061 35.9258 60.2541 35.9258C60.1022 35.9258 59.979 36.049 59.979 36.2009C59.979 36.3529 60.1022 36.476 60.2541 36.476Z" stroke="var(--stroke-0, #0F1111)" stroke-width="0.5" stroke-miterlimit="10" stroke-linecap="round" stroke-linejoin="round"/>
<path id="Vector_20" d="M63.5554 34.688C63.7074 34.688 63.8305 34.5648 63.8305 34.4128C63.8305 34.2609 63.7074 34.1377 63.5554 34.1377C63.4035 34.1377 63.2803 34.2609 63.2803 34.4128C63.2803 34.5648 63.4035 34.688 63.5554 34.688Z" stroke="var(--stroke-0, #0F1111)" stroke-width="0.5" stroke-miterlimit="10" stroke-linecap="round" stroke-linejoin="round"/>
<path id="Vector_21" d="M63.5554 36.476C63.7074 36.476 63.8305 36.3529 63.8305 36.2009C63.8305 36.049 63.7074 35.9258 63.5554 35.9258C63.4035 35.9258 63.2803 36.049 63.2803 36.2009C63.2803 36.3529 63.4035 36.476 63.5554 36.476Z" stroke="var(--stroke-0, #0F1111)" stroke-width="0.5" stroke-miterlimit="10" stroke-linecap="round" stroke-linejoin="round"/>
<path id="Vector_22" d="M60.2541 34.688C60.4061 34.688 60.5293 34.5648 60.5293 34.4128C60.5293 34.2609 60.4061 34.1377 60.2541 34.1377C60.1022 34.1377 59.979 34.2609 59.979 34.4128C59.979 34.5648 60.1022 34.688 60.2541 34.688Z" stroke="var(--stroke-0, #0F1111)" stroke-width="0.5" stroke-miterlimit="10" stroke-linecap="round" stroke-linejoin="round"/>
<path id="Vector_23" d="M6.74073 10.7515H5.36506C5.2275 11.0266 5.2275 11.1642 5.2275 11.1642C3.9894 14.7409 3.30157 17.9049 2.75131 20.5187L4.4021 20.2435L6.74073 10.7515ZM2.06348 28.9102L3.30157 28.2224C3.71427 27.9472 3.9894 27.397 3.9894 26.9843V24.6456C3.9894 24.2329 3.5767 23.8202 3.16401 23.8202H2.33861C2.06348 26.1589 2.06348 27.9472 2.06348 28.9102Z" stroke="var(--stroke-0, #0F1111)" stroke-miterlimit="10" stroke-linecap="round" stroke-linejoin="round"/>
<path id="Vector_24" d="M5.77767 30.9734V32.3491C5.77767 33.0369 6.32794 33.5872 7.01577 33.5872H10.4549C11.1428 33.5872 11.693 33.0369 11.693 32.3491V30.9734H5.77767ZM19.8094 26.8464H19.947V11.439C19.947 11.439 19.947 10.4761 18.984 10.4761C18.0211 10.4761 8.9417 10.7512 8.9417 10.7512C8.9417 10.7512 7.56603 10.7512 7.2909 11.8517C7.01577 12.9523 5.08984 19.0052 5.08984 26.4337V30.9734H12.5184C14.1692 28.4972 16.783 26.8464 19.8094 26.8464Z" stroke="var(--stroke-0, #0F1111)" stroke-width="0.5" stroke-miterlimit="10" stroke-linecap="round" stroke-linejoin="round"/>
<path id="Vector_25" d="M19.8095 29.0475C16.5079 29.0475 13.7566 31.6613 13.4814 34.8253H14.7195C14.9947 32.2116 17.0582 30.2856 19.8095 30.2856C22.5608 30.2856 24.8994 32.4867 24.8994 35.3756C24.8994 35.6507 24.8994 35.9258 24.7619 36.201H26.1375C26.1375 35.9258 26.1375 35.6507 26.1375 35.3756C26.1375 31.7989 23.3862 29.0475 19.8095 29.0475ZM61.9047 27.6719C57.7777 27.6719 54.3386 29.5978 54.3386 31.9364C54.3386 34.275 54.3386 36.201 54.3386 36.201H55.7143C55.7143 35.9258 55.7143 35.6507 55.7143 35.3756C55.7143 31.9364 58.6031 29.0475 62.0423 29.0475C65.4814 29.0475 68.3703 31.9364 68.3703 35.3756C68.3703 35.6507 68.3703 35.9258 68.3703 36.201H69.746C69.746 36.201 69.746 34.275 69.746 31.9364C69.4709 29.5978 66.1693 27.6719 61.9047 27.6719Z" stroke="var(--stroke-0, #0F1111)" stroke-miterlimit="10" stroke-linecap="round" stroke-linejoin="round"/>
<path id="Vector_26" d="M61.9047 29.0479C58.4655 29.0479 55.5767 31.9367 55.5767 35.3759C55.5767 35.651 55.5767 35.9262 55.5767 36.2013H56.8148C56.8148 35.9262 56.6772 35.651 56.6772 35.3759C56.6772 32.6246 58.8782 30.2859 61.7671 30.2859C64.5185 30.2859 66.8571 32.487 66.8571 35.3759C66.8571 35.651 66.8571 35.9262 66.7195 36.2013H67.9576C67.9576 35.9262 67.9576 35.651 67.9576 35.3759C68.2327 31.7992 65.4814 29.0479 61.9047 29.0479Z" stroke="var(--stroke-0, #0F1111)" stroke-miterlimit="10" stroke-linecap="round" stroke-linejoin="round"/>
<path id="Vector_27" d="M75.9367 30.8359H74.561V32.7619H75.9367V30.8359Z" stroke="var(--stroke-0, #0F1111)" stroke-miterlimit="10" stroke-linecap="round" stroke-linejoin="round"/>
<path id="Vector_28" d="M68.9204 30.2856C69.3331 30.8359 69.6082 31.3862 69.6082 31.9364C69.6082 32.3491 69.6082 32.8994 69.6082 33.3121H73.8728V36.201H74.6982V30.2856H68.9204Z" stroke="var(--stroke-0, #0F1111)" stroke-miterlimit="10" stroke-linecap="round" stroke-linejoin="round"/>
<path id="Vector_29" d="M18.2965 23.9575H15.8203V24.7829H18.2965V23.9575Z" stroke="var(--stroke-0, #0F1111)" stroke-width="0.5" stroke-miterlimit="10" stroke-linecap="round" stroke-linejoin="round"/>
<path id="Vector_30" d="M17.1956 11.439L9.21678 11.7141C9.21678 11.7141 8.52895 11.7141 8.39139 12.1268C8.39139 12.2644 8.25382 12.4019 8.25382 12.6771C8.25382 12.8146 8.25382 12.8146 8.25382 12.9522C8.39139 12.9522 8.39139 12.9522 8.52895 12.9522C8.94165 12.9522 9.21678 12.9522 9.21678 12.9522V19.6929L16.7829 18.3173C17.4708 18.1797 18.021 17.4919 18.1586 16.804L18.5713 12.6771C18.4337 11.9892 17.8834 11.439 17.1956 11.439ZM7.70356 19.1427V14.3279C7.29086 15.7035 6.87816 17.6294 6.60303 19.9681L7.97869 19.6929C7.84112 19.5554 7.70356 19.4178 7.70356 19.1427Z" stroke="var(--stroke-0, #0F1111)" stroke-width="0.5" stroke-miterlimit="10" stroke-linecap="round" stroke-linejoin="round"/>
<path id="Vector_31" d="M19.8095 27.9472C15.8201 27.9472 12.6561 30.9737 12.381 34.8255C12.6561 30.8361 15.9577 27.8097 19.8095 27.9472ZM19.8095 27.9472H23.799M5.22753 26.0213H20.0847M20.0847 18.4552L2.61377 21.6192M8.94181 19.9684C8.94181 19.9684 8.66668 19.9684 8.25398 19.9684C7.84128 19.9684 7.56615 19.5557 7.56615 19.143V13.6403C7.56615 13.2276 7.84128 12.8149 8.25398 12.8149C8.66668 12.8149 8.94181 12.8149 8.94181 12.8149V19.9684ZM29.164 32.3493C28.7513 32.3493 28.3386 32.762 28.3386 33.1747C28.3386 33.5874 28.7513 34.0001 29.164 34.0001H54.4762V32.3493H29.164Z" stroke="var(--stroke-0, #0F1111)" stroke-width="0.5" stroke-miterlimit="10" stroke-linecap="round" stroke-linejoin="round"/>
<path id="Vector_32" d="M26.5503 1.67188V30.2856H55.0265C56.2646 28.7724 58.8783 27.8094 61.9048 27.8094C65.0688 27.8094 67.6826 28.91 68.7831 30.2856H74.4233V1.67188H26.5503Z" stroke="var(--stroke-0, #0F1111)" stroke-miterlimit="10" stroke-linecap="round" stroke-linejoin="round"/>
<g id="Group">
<path id="Vector_33" d="M29.9897 3.32275H28.3389V4.14815H29.9897V3.32275Z" stroke="var(--stroke-0, #0F1111)" stroke-width="0.5" stroke-miterlimit="10" stroke-linecap="round" stroke-linejoin="round"/>
<path id="Vector_34" d="M51.45 3.32275H49.7992V4.14815H51.45V3.32275Z" stroke="var(--stroke-0, #0F1111)" stroke-width="0.5" stroke-miterlimit="10" stroke-linecap="round" stroke-linejoin="round"/>
<path id="Vector_35" d="M62.1801 3.32275H60.5293V4.14815H62.1801V3.32275Z" stroke="var(--stroke-0, #0F1111)" stroke-width="0.5" stroke-miterlimit="10" stroke-linecap="round" stroke-linejoin="round"/>
<path id="Vector_36" d="M40.7198 3.32275H39.069V4.14815H40.7198V3.32275Z" stroke="var(--stroke-0, #0F1111)" stroke-width="0.5" stroke-miterlimit="10" stroke-linecap="round" stroke-linejoin="round"/>
<path id="Vector_37" d="M72.9103 3.32275H71.2595V4.14815H72.9103V3.32275Z" stroke="var(--stroke-0, #0F1111)" stroke-width="0.5" stroke-miterlimit="10" stroke-linecap="round" stroke-linejoin="round"/>
<path id="Vector_38" d="M72.9103 27.672H71.2595V28.4974H72.9103V27.672Z" stroke="var(--stroke-0, #0F1111)" stroke-width="0.5" stroke-miterlimit="10" stroke-linecap="round" stroke-linejoin="round"/>
<path id="Vector_39" d="M29.9897 27.672H28.3389V28.4974H29.9897V27.672Z" stroke="var(--stroke-0, #0F1111)" stroke-width="0.5" stroke-miterlimit="10" stroke-linecap="round" stroke-linejoin="round"/>
<path id="Vector_40" d="M40.7198 27.672H39.069V28.4974H40.7198V27.672Z" stroke="var(--stroke-0, #0F1111)" stroke-width="0.5" stroke-miterlimit="10" stroke-linecap="round" stroke-linejoin="round"/>
<path id="Vector_41" d="M51.45 27.672H49.7992V28.4974H51.45V27.672Z" stroke="var(--stroke-0, #0F1111)" stroke-width="0.5" stroke-miterlimit="10" stroke-linecap="round" stroke-linejoin="round"/>
</g>
<g id="Group_2">
<path id="Vector_42" d="M28.3389 5.79883H72.9103M28.3389 10.8888H72.9103M28.3389 15.9787H72.9103M28.3389 21.0687H72.9103M72.9103 26.0211H28.3389" stroke="var(--stroke-0, #0F1111)" stroke-width="0.5" stroke-miterlimit="10" stroke-linecap="round" stroke-linejoin="round"/>
</g>
</g>
</svg>
