<svg preserveAspectRatio="none" width="100%" height="100%" overflow="visible" style="display: block;" viewBox="0 0 80 40" fill="none" xmlns="http://www.w3.org/2000/svg">
<g id="van 1">
<path id="Vector" d="M15.5202 36.8608C18.5593 36.8608 21.0229 34.3971 21.0229 31.3581C21.0229 28.3191 18.5593 25.8555 15.5202 25.8555C12.4812 25.8555 10.0176 28.3191 10.0176 31.3581C10.0176 34.3971 12.4812 36.8608 15.5202 36.8608Z" stroke="var(--stroke-0, #0F1111)" stroke-miterlimit="10" stroke-linecap="round" stroke-linejoin="round"/>
<path id="Vector_2" d="M64.7619 36.8608C67.801 36.8608 70.2646 34.3971 70.2646 31.3581C70.2646 28.3191 67.801 25.8555 64.7619 25.8555C61.7229 25.8555 59.2593 28.3191 59.2593 31.3581C59.2593 34.3971 61.7229 36.8608 64.7619 36.8608Z" stroke="var(--stroke-0, #0F1111)" stroke-miterlimit="10" stroke-linecap="round" stroke-linejoin="round"/>
<path id="Vector_3" d="M77.4601 24.8676C77.4601 7.51306 76.3314 3.70354 73.3684 3.42135C70.5465 3.13916 58.5536 3.13916 58.5536 3.13916C58.5536 3.13916 39.506 3.13916 32.8746 3.42135C26.2432 3.70354 23.5624 5.96103 23.5624 5.96103L12.6982 15.8376L4.09152 19.506C4.09152 19.506 2.11621 21.058 2.11621 25.2908C2.11621 29.5236 3.38605 30.9346 3.38605 30.9346L8.46542 32.4866C8.46542 32.0633 8.32432 31.7811 8.32432 31.3579C8.32432 27.2661 11.5695 24.021 15.6612 24.021C19.7529 24.021 22.998 27.2661 22.998 31.3579C22.998 31.7811 22.998 32.2044 22.857 32.6277H56.8605C57.1427 32.6277 57.2838 32.6277 57.5659 32.6277C57.5659 32.2044 57.4249 31.7811 57.4249 31.3579C57.4249 27.2661 60.67 24.021 64.7617 24.021C68.8534 24.021 72.0986 27.2661 72.0986 31.3579V31.4989C76.6136 30.7935 78.0245 29.8058 78.0245 29.8058V25.2908L77.4601 24.8676Z" stroke="var(--stroke-0, #0F1111)" stroke-miterlimit="10" stroke-linecap="round" stroke-linejoin="round"/>
<path id="Vector_4" d="M15.5205 35.0263C17.5465 35.0263 19.1889 33.3839 19.1889 31.3579C19.1889 29.3319 17.5465 27.6895 15.5205 27.6895C13.4945 27.6895 11.8521 29.3319 11.8521 31.3579C11.8521 33.3839 13.4945 35.0263 15.5205 35.0263Z" stroke="var(--stroke-0, #0F1111)" stroke-width="0.5" stroke-miterlimit="10" stroke-linecap="round" stroke-linejoin="round"/>
<path id="Vector_5" d="M11.8521 31.9223C11.8521 32.3456 11.9931 32.7689 12.2753 33.0511L14.6739 32.2045L14.815 32.3456V35.0264C14.9561 35.0264 15.2383 35.0264 15.3794 35.0264C15.5205 35.0264 15.8027 35.0264 15.9438 35.0264V32.4867C16.0849 32.4867 16.0849 32.3456 16.0849 32.3456L18.4834 33.1922C18.6245 32.7689 18.7656 32.4867 18.9067 32.0634L16.5081 31.2169C16.5081 31.0758 16.5081 31.0758 16.367 30.9347L17.9191 28.8183C17.6369 28.5361 17.3547 28.2539 16.9314 28.1128L15.3794 30.2292H15.2383H15.0972L13.5452 28.1128C13.1219 28.2539 12.8397 28.5361 12.5575 28.8183L14.1095 30.9347C14.1095 31.0758 14.1095 31.0758 13.9685 31.2169L11.8521 31.9223Z" stroke="var(--stroke-0, #0F1111)" stroke-width="0.5" stroke-miterlimit="10" stroke-linecap="round" stroke-linejoin="round"/>
<path id="Vector_6" d="M15.5203 32.6281C16.2216 32.6281 16.7902 32.0595 16.7902 31.3582C16.7902 30.6569 16.2216 30.0884 15.5203 30.0884C14.819 30.0884 14.2505 30.6569 14.2505 31.3582C14.2505 32.0595 14.819 32.6281 15.5203 32.6281Z" stroke="var(--stroke-0, #0F1111)" stroke-width="0.5" stroke-miterlimit="10" stroke-linecap="round" stroke-linejoin="round"/>
<path id="Vector_7" d="M15.5204 31.7811C15.7542 31.7811 15.9437 31.5916 15.9437 31.3579C15.9437 31.1241 15.7542 30.9346 15.5204 30.9346C15.2867 30.9346 15.0972 31.1241 15.0972 31.3579C15.0972 31.5916 15.2867 31.7811 15.5204 31.7811Z" stroke="var(--stroke-0, #0F1111)" stroke-width="0.5" stroke-miterlimit="10" stroke-linecap="round" stroke-linejoin="round"/>
<path id="Vector_8" d="M64.7617 35.0263C66.7877 35.0263 68.4301 33.3839 68.4301 31.3579C68.4301 29.3319 66.7877 27.6895 64.7617 27.6895C62.7357 27.6895 61.0933 29.3319 61.0933 31.3579C61.0933 33.3839 62.7357 35.0263 64.7617 35.0263Z" stroke="var(--stroke-0, #0F1111)" stroke-width="0.5" stroke-miterlimit="10" stroke-linecap="round" stroke-linejoin="round"/>
<path id="Vector_9" d="M61.0933 31.9223C61.0933 32.3456 61.2344 32.7689 61.5165 33.051L63.9151 32.2045L64.0562 32.3456V35.0264C64.1973 35.0264 64.4795 35.0264 64.6206 35.0264C64.7617 35.0264 65.0439 35.0264 65.185 35.0264V32.4867C65.3261 32.4867 65.3261 32.3456 65.3261 32.3456L67.7247 33.1921C67.8657 32.7689 68.0068 32.4867 68.1479 32.0634L65.7493 31.2168C65.7493 31.0757 65.7493 31.0757 65.6083 30.9346L67.1603 28.8182C66.8781 28.5361 66.5959 28.2539 66.1726 28.1128L64.9028 30.0881H64.7617H64.6206L63.0686 27.9717C62.6453 28.1128 62.3631 28.395 62.0809 28.6771L63.6329 30.7935C63.6329 30.9346 63.6329 30.9346 63.4919 31.0757L61.0933 31.9223Z" stroke="var(--stroke-0, #0F1111)" stroke-width="0.5" stroke-miterlimit="10" stroke-linecap="round" stroke-linejoin="round"/>
<path id="Vector_10" d="M64.762 32.6281C65.4633 32.6281 66.0319 32.0595 66.0319 31.3582C66.0319 30.6569 65.4633 30.0884 64.762 30.0884C64.0607 30.0884 63.4922 30.6569 63.4922 31.3582C63.4922 32.0595 64.0607 32.6281 64.762 32.6281Z" stroke="var(--stroke-0, #0F1111)" stroke-width="0.5" stroke-miterlimit="10" stroke-linecap="round" stroke-linejoin="round"/>
<path id="Vector_11" d="M64.7622 31.7811C64.9959 31.7811 65.1854 31.5916 65.1854 31.3579C65.1854 31.1241 64.9959 30.9346 64.7622 30.9346C64.5284 30.9346 64.3389 31.1241 64.3389 31.3579C64.3389 31.5916 64.5284 31.7811 64.7622 31.7811Z" stroke="var(--stroke-0, #0F1111)" stroke-width="0.5" stroke-miterlimit="10" stroke-linecap="round" stroke-linejoin="round"/>
<path id="Vector_12" d="M72.0985 31.4993C76.6135 30.7939 78.0245 29.8062 78.0245 29.8062V25.2912H68.9945C70.9698 26.5611 72.2396 28.8186 72.2396 31.3582C72.0985 31.4993 72.0985 31.4993 72.0985 31.4993ZM8.18319 32.487L3.10383 30.9349C3.10383 30.9349 1.83398 29.3829 1.83398 25.2912H11.2872C9.31194 26.5611 8.0421 28.8186 8.0421 31.3582C8.18319 31.7815 8.18319 32.2048 8.18319 32.487ZM77.4601 23.8803H74.9204V16.4023H77.319C77.4601 18.3776 77.4601 20.9173 77.4601 23.8803ZM1.97508 24.3036H4.23257C4.23257 24.3036 4.23257 22.3282 5.07913 20.7762L3.52711 20.0708C2.96273 20.7762 2.25726 22.0461 1.97508 24.3036ZM23.7035 5.82031H25.3966L15.5201 15.8379H12.6982L23.7035 5.82031Z" stroke="var(--stroke-0, #0F1111)" stroke-miterlimit="10" stroke-linecap="round" stroke-linejoin="round"/>
<path id="Vector_13" d="M24.1269 25.291H58.5537C60.1057 23.7389 62.2221 22.7513 64.6207 22.7513C67.0193 22.7513 69.1357 23.7389 70.6877 25.291M24.1269 31.358C24.1269 26.5608 20.3174 22.7513 15.5202 22.7513C13.1216 22.7513 11.0052 23.7389 9.45318 25.291M6.34912 20.0705L35.8377 14.5679" stroke="var(--stroke-0, #0F1111)" stroke-width="0.5" stroke-miterlimit="10" stroke-linecap="round" stroke-linejoin="round"/>
<path id="Vector_14" d="M26.1022 6.66673C26.1022 6.66673 22.5748 10.1941 21.305 11.4639C20.0352 12.7338 20.0352 14.1447 20.0352 14.1447V24.0212C22.5748 25.5733 24.268 28.254 24.268 31.3581H34.4267C36.1198 23.1747 36.2609 4.83252 36.2609 4.83252C27.2309 4.97361 26.1022 6.66673 26.1022 6.66673Z" stroke="var(--stroke-0, #0F1111)" stroke-width="0.5" stroke-miterlimit="10" stroke-linecap="round" stroke-linejoin="round"/>
<path id="Vector_15" d="M64.7621 24.021C60.6704 24.021 57.4252 27.2661 57.4252 31.3579C57.4252 31.7811 57.4252 32.2044 57.5663 32.6277C58.2718 32.6277 58.8361 32.6277 59.4005 32.6277C59.2594 32.2044 59.2594 31.7811 59.2594 31.3579C59.2594 28.2538 61.7991 25.8552 64.7621 25.8552C67.8661 25.8552 70.2647 28.3949 70.2647 31.3579C70.2647 31.499 70.2647 31.64 70.2647 31.7811C70.9702 31.64 71.5346 31.64 72.0989 31.4989V31.3579C72.0989 27.2661 68.8538 24.021 64.7621 24.021ZM15.5205 24.021C11.4287 24.021 8.18359 27.2661 8.18359 31.3579C8.18359 31.7811 8.18359 32.2044 8.32469 32.4866L8.46578 32.6277H10.1589C10.0178 32.2044 10.0178 31.7811 10.0178 31.3579C10.0178 28.2538 12.5575 25.8552 15.5205 25.8552C18.6245 25.8552 21.0231 28.3949 21.0231 31.3579C21.0231 31.7811 21.0231 32.2044 20.882 32.6277H22.1518H22.8573C22.8573 32.2044 22.9984 31.7811 22.9984 31.3579C22.8573 27.2661 19.6122 24.021 15.5205 24.021Z" stroke="var(--stroke-0, #0F1111)" stroke-miterlimit="10" stroke-linecap="round" stroke-linejoin="round"/>
<path id="Vector_16" d="M17.3547 19.6475H16.0849C15.8027 19.6475 15.5205 19.9296 15.5205 20.2118C15.5205 20.494 15.8027 20.7762 16.0849 20.7762H17.3547C17.6369 20.7762 17.9191 20.494 17.9191 20.2118C17.9191 19.9296 17.778 19.6475 17.3547 19.6475Z" stroke="var(--stroke-0, #0F1111)" stroke-width="0.5" stroke-miterlimit="10" stroke-linecap="round" stroke-linejoin="round"/>
<path id="Vector_17" d="M34.0034 17.2485H30.335V18.5184H34.0034V17.2485Z" stroke="var(--stroke-0, #0F1111)" stroke-width="0.5" stroke-miterlimit="10" stroke-linecap="round" stroke-linejoin="round"/>
<path id="Vector_18" d="M24.127 10.053V15.6967M24.127 10.053C25.3968 8.78315 26.8078 7.37222 26.8078 7.37222C26.8078 7.37222 28.3598 6.24347 34.9912 6.10238C34.9912 7.65441 34.8501 11.8872 34.8501 11.8872C34.8501 12.8749 34.0035 13.8625 33.0159 14.0036L24.127 15.6967M24.127 10.053C23.1394 11.0406 22.2928 11.8872 22.0106 12.1694C21.164 13.016 21.0229 14.0036 21.0229 14.1447V16.2611L24.127 15.6967M72.6632 19.083C72.6632 20.0706 71.8166 20.9172 70.8289 20.9172H40.0706C39.0829 20.9172 38.2364 20.0706 38.2364 19.083V6.80785C38.2364 5.82019 39.0829 4.97363 40.0706 4.97363H70.8289C71.8166 4.97363 72.6632 5.82019 72.6632 6.80785V19.083ZM42.0459 29.2417C42.0459 29.5239 41.7637 29.8061 41.4815 29.8061H39.0829C38.8007 29.8061 38.5185 29.5239 38.5185 29.2417V27.4075C38.5185 27.1253 38.8007 26.8431 39.0829 26.8431H41.4815C41.7637 26.8431 42.0459 27.1253 42.0459 27.4075V29.2417Z" stroke="var(--stroke-0, #0F1111)" stroke-width="0.5" stroke-miterlimit="10" stroke-linecap="round" stroke-linejoin="round"/>
</g>
</svg>
